<svg width="262" height="30" viewBox="0 0 262 30" fill="none" xmlns="http://www.w3.org/2000/svg">
<path d="M29.5014 29.725H36.0572V10.0574H29.5014V29.725ZM39.3351 6.77949H55.7248V0.223633H39.3351V6.77949ZM29.5014 0.223633H36.0572V6.77949H29.5014V0.223633ZM19.6676 29.725H26.2234V0.223633H19.6676V29.725ZM9.83378 23.1691H16.3896V0.223633H9.83378V23.1691ZM0 29.725H6.55586V0.223633H0V29.725ZM39.3351 29.725H45.891V10.0574H39.3351V29.725Z" fill="black"/>
<path d="M67.3856 28.7449H67.3512C66.9041 29.4153 66.2682 29.9311 64.7551 29.9311C62.9497 29.9311 61.6775 28.9854 61.6775 27.2318C61.6775 25.2892 63.2591 24.6701 65.2189 24.3951C66.6804 24.1886 67.3508 24.0686 67.3508 23.3978C67.3508 22.7619 66.8521 22.3493 65.8724 22.3493C64.7723 22.3493 64.2392 22.7447 64.1704 23.5871H62.0901C62.1589 22.0399 63.3107 20.6816 65.8896 20.6816C68.5374 20.6816 69.6031 21.8678 69.6031 23.9309V28.418C69.6031 29.0883 69.7064 29.4837 69.9125 29.6386V29.7246H67.6601C67.5233 29.5529 67.4372 29.1403 67.3856 28.7449ZM67.4028 26.613V25.2892C66.9902 25.5301 66.3543 25.6674 65.7696 25.805C64.549 26.08 63.947 26.3553 63.947 27.1805C63.947 28.0058 64.4973 28.2979 65.3225 28.2979C66.6636 28.2979 67.4028 27.4727 67.4028 26.613Z" fill="black"/>
<path d="M73.3682 22.1086H73.4198C74.0218 21.163 74.8298 20.6643 76.0332 20.6643C77.8557 20.6643 79.0763 22.0398 79.0763 23.9652V29.7245H76.7383V24.3094C76.7383 23.3637 76.1881 22.6933 75.2084 22.6933C74.1766 22.6933 73.4203 23.5186 73.4203 24.722V29.7249H71.0823V20.9052H73.3686V22.1086H73.3682Z" fill="black"/>
<path d="M80.0901 25.3237C80.0901 22.5731 81.6545 20.6645 83.8552 20.6645C85.093 20.6645 85.8666 21.232 86.3481 21.9712H86.3997V17.4329H88.7377V29.7251H86.4853V28.5733H86.4509C85.935 29.4157 85.0582 29.9832 83.8204 29.9832C81.6033 29.9828 80.0901 28.1779 80.0901 25.3237ZM86.4513 25.3753C86.4513 23.6904 85.901 22.5559 84.4055 22.5559C83.116 22.5559 82.4629 23.6904 82.4629 25.3237C82.4629 27.0257 83.1332 28.023 84.3371 28.023C85.7294 28.023 86.4513 26.9913 86.4513 25.3753Z" fill="black"/>
<path d="M92.7777 25.9255H95.2189C95.391 27.4038 96.2335 27.9885 97.9867 27.9885C99.259 27.9885 100.376 27.5415 100.376 26.4069C100.376 25.2035 99.2074 24.9626 97.3332 24.5332C95.1325 24.0345 93.1211 23.4502 93.1211 20.8885C93.1211 18.4645 95.0981 17.2095 97.8319 17.2095C100.6 17.2095 102.388 18.5678 102.577 21.0434H100.187C100.05 19.8056 99.0873 19.1865 97.8151 19.1865C96.474 19.1865 95.5971 19.754 95.5971 20.6308C95.5971 21.6281 96.4568 21.9203 98.2793 22.3157C100.807 22.8659 102.87 23.4674 102.87 26.1152C102.87 28.6081 100.858 30.0008 98.0904 30.0008C94.7547 29.9999 92.8638 28.5216 92.7777 25.9255Z" fill="black"/>
<path d="M103.746 25.3235C103.746 22.6929 105.62 20.6643 108.354 20.6643C111.087 20.6643 112.961 22.6929 112.961 25.3235C112.961 27.954 111.087 29.9826 108.354 29.9826C105.62 29.9826 103.746 27.954 103.746 25.3235ZM110.589 25.3235C110.589 23.6042 109.781 22.4352 108.354 22.4352C106.909 22.4352 106.118 23.6042 106.118 25.3235C106.118 27.0427 106.909 28.1945 108.354 28.1945C109.781 28.1949 110.589 27.0427 110.589 25.3235Z" fill="black"/>
<path d="M113.614 25.3235C113.614 22.6929 115.334 20.6643 118.015 20.6643C120.302 20.6643 121.712 21.9882 122.021 23.8963H119.735C119.58 23.1228 118.978 22.5381 118.119 22.5381C116.709 22.5381 115.987 23.621 115.987 25.3231C115.987 26.9907 116.657 28.1081 118.084 28.1081C119.03 28.1081 119.7 27.6094 119.855 26.6125H122.107C121.952 28.4863 120.491 29.9822 118.136 29.9822C115.35 29.9826 113.614 27.954 113.614 25.3235Z" fill="black"/>
<path d="M123.121 17.4329H125.459V19.5303H123.121V17.4329ZM123.121 20.9054H125.459V29.7251H123.121V20.9054Z" fill="black"/>
<path d="M132.25 28.7449H132.216C131.769 29.4153 131.133 29.9311 129.62 29.9311C127.814 29.9311 126.542 28.9854 126.542 27.2318C126.542 25.2892 128.124 24.6701 130.084 24.3951C131.545 24.1886 132.216 24.0686 132.216 23.3978C132.216 22.7619 131.717 22.3493 130.737 22.3493C129.637 22.3493 129.104 22.7447 129.035 23.5871H126.955C127.024 22.0399 128.176 20.6816 130.755 20.6816C133.402 20.6816 134.468 21.8678 134.468 23.9309V28.418C134.468 29.0883 134.571 29.4837 134.777 29.6386V29.7246H132.525C132.388 29.5529 132.302 29.1403 132.25 28.7449ZM132.267 26.613V25.2892C131.855 25.5301 131.219 25.6674 130.634 25.805C129.413 26.08 128.812 26.3553 128.812 27.1805C128.812 28.0058 129.362 28.2979 130.187 28.2979C131.528 28.2979 132.267 27.4727 132.267 26.613Z" fill="black"/>
<path d="M135.98 17.4329H138.318V29.7251H135.98V17.4329Z" fill="black"/>
<path d="M142.393 25.9255H144.834C145.007 27.4038 145.849 27.9885 147.602 27.9885C148.874 27.9885 149.992 27.5415 149.992 26.4069C149.992 25.2035 148.823 24.9626 146.949 24.5332C144.748 24.0345 142.737 23.4502 142.737 20.8885C142.737 18.4645 144.714 17.2095 147.447 17.2095C150.215 17.2095 152.003 18.5678 152.193 21.0434H149.803C149.665 19.8056 148.703 19.1865 147.431 19.1865C146.089 19.1865 145.213 19.754 145.213 20.6308C145.213 21.6281 146.072 21.9203 147.895 22.3157C150.422 22.8659 152.485 23.4674 152.485 26.1152C152.485 28.6081 150.474 30.0008 147.706 30.0008C144.37 29.9999 142.479 28.5216 142.393 25.9255Z" fill="black"/>
<path d="M153.362 25.3235C153.362 22.6929 155.081 20.6643 157.763 20.6643C160.049 20.6643 161.459 21.9882 161.768 23.8963H159.482C159.327 23.1228 158.725 22.5381 157.866 22.5381C156.456 22.5381 155.734 23.621 155.734 25.3231C155.734 26.9907 156.404 28.1081 157.831 28.1081C158.777 28.1081 159.447 27.6094 159.602 26.6125H161.855C161.7 28.4863 160.239 29.9822 157.883 29.9822C155.098 29.9826 153.362 27.954 153.362 25.3235Z" fill="black"/>
<path d="M162.869 17.4329H165.207V19.5303H162.869V17.4329ZM162.869 20.9054H165.207V29.7251H162.869V20.9054Z" fill="black"/>
<path d="M166.29 25.3063C166.29 22.6929 168.061 20.6643 170.639 20.6643C173.476 20.6643 174.989 22.8306 174.989 25.9766H168.594C168.766 27.3349 169.522 28.1773 170.846 28.1773C171.757 28.1773 172.29 27.7647 172.548 27.0944H174.852C174.525 28.6588 173.132 29.9826 170.863 29.9826C167.94 29.9826 166.29 27.9368 166.29 25.3063ZM168.628 24.361H172.548C172.479 23.2436 171.74 22.47 170.674 22.47C169.436 22.4696 168.834 23.2092 168.628 24.361Z" fill="black"/>
<path d="M178.358 22.1086H178.41C179.012 21.163 179.82 20.6643 181.023 20.6643C182.846 20.6643 184.066 22.0398 184.066 23.9652V29.7245H181.728V24.3094C181.728 23.3637 181.178 22.6933 180.198 22.6933C179.167 22.6933 178.41 23.5186 178.41 24.722V29.7249H176.072V20.9052H178.359V22.1086H178.358Z" fill="black"/>
<path d="M185.08 25.3235C185.08 22.6929 186.8 20.6643 189.481 20.6643C191.768 20.6643 193.178 21.9882 193.487 23.8963H191.201C191.046 23.1228 190.444 22.5381 189.585 22.5381C188.175 22.5381 187.453 23.621 187.453 25.3231C187.453 26.9907 188.123 28.1081 189.55 28.1081C190.496 28.1081 191.166 27.6094 191.321 26.6125H193.574C193.419 28.4863 191.958 29.9822 189.602 29.9822C186.817 29.9826 185.08 27.954 185.08 25.3235Z" fill="black"/>
<path d="M194.157 25.3063C194.157 22.6929 195.928 20.6643 198.507 20.6643C201.344 20.6643 202.857 22.8306 202.857 25.9766H196.461C196.634 27.3349 197.39 28.1773 198.714 28.1773C199.625 28.1773 200.158 27.7647 200.416 27.0944H202.719C202.393 28.6588 201 29.9826 198.731 29.9826C195.808 29.9826 194.157 27.9368 194.157 25.3063ZM196.496 24.361H200.416C200.347 23.2436 199.608 22.47 198.542 22.47C197.304 22.4696 196.702 23.2092 196.496 24.361Z" fill="black"/>
<path d="M203.39 26.8711H205.556C205.711 27.8857 206.433 28.3327 207.481 28.3327C208.513 28.3327 209.097 27.9373 209.097 27.3182C209.097 26.4757 207.98 26.3897 206.777 26.1492C205.195 25.8398 203.648 25.41 203.648 23.4842C203.648 21.5761 205.229 20.6648 207.241 20.6648C209.562 20.6648 210.851 21.8166 211.023 23.5875H208.908C208.805 22.6418 208.204 22.298 207.206 22.298C206.295 22.298 205.694 22.6418 205.694 23.2781C205.694 24.0345 206.863 24.1033 208.118 24.3611C209.596 24.6704 211.23 25.083 211.23 27.1461C211.23 28.917 209.717 29.9827 207.516 29.9827C204.954 29.9827 203.527 28.7449 203.39 26.8711Z" fill="black"/>
<path d="M61.7467 8.7165H64.1879C64.36 10.1948 65.2025 10.7795 66.9557 10.7795C68.228 10.7795 69.3454 10.3325 69.3454 9.19794C69.3454 7.99453 68.1764 7.75361 66.3022 7.3242C64.1015 6.82554 62.0901 6.24125 62.0901 3.67955C62.0901 1.25552 64.0671 0.000488281 66.8009 0.000488281C69.5687 0.000488281 71.3568 1.35878 71.5461 3.83443H69.1565C69.0188 2.59661 68.0563 1.97749 66.7841 1.97749C65.443 1.97749 64.5661 2.54498 64.5661 3.42182C64.5661 4.41913 65.4258 4.71128 67.2483 5.10668C69.7756 5.65696 71.8386 6.25846 71.8386 8.90621C71.8386 11.3991 69.8272 12.7918 67.0594 12.7918C63.7237 12.791 61.8323 11.3126 61.7467 8.7165Z" fill="black"/>
<path d="M72.7151 8.11449C72.7151 5.48395 74.4344 3.45532 77.1161 3.45532C79.4029 3.45532 80.8124 4.7792 81.1217 6.68736H78.8354C78.6805 5.91377 78.079 5.32907 77.2194 5.32907C75.8094 5.32907 75.0875 6.41201 75.0875 8.11408C75.0875 9.78172 75.7578 10.8991 77.185 10.8991C78.1306 10.8991 78.801 10.4004 78.9558 9.40353H81.2082C81.0533 11.2773 79.5922 12.7732 77.237 12.7732C74.4516 12.7737 72.7151 10.745 72.7151 8.11449Z" fill="black"/>
<path d="M84.5602 4.84821H84.6119C85.2478 3.91974 85.9702 3.4555 87.1736 3.4555C88.9961 3.4555 90.2167 4.831 90.2167 6.75637V12.5157H87.8787V7.10056C87.8787 6.15488 87.3284 5.48454 86.3487 5.48454C85.3174 5.48454 84.5606 6.30976 84.5606 7.51317V12.5161H82.2227V0.223877H84.5606V4.84821H84.5602Z" fill="black"/>
<path d="M91.2305 8.11449C91.2305 5.48395 93.1046 3.45532 95.838 3.45532C98.5714 3.45532 100.446 5.48395 100.446 8.11449C100.446 10.745 98.5718 12.7736 95.838 12.7736C93.1046 12.7736 91.2305 10.745 91.2305 8.11449ZM98.0731 8.11449C98.0731 6.39521 97.2651 5.22622 95.838 5.22622C94.3937 5.22622 93.6029 6.39521 93.6029 8.11449C93.6029 9.83376 94.3937 10.9855 95.838 10.9855C97.2651 10.9859 98.0731 9.83376 98.0731 8.11449Z" fill="black"/>
<path d="M101.099 8.11449C101.099 5.48395 102.973 3.45532 105.706 3.45532C108.44 3.45532 110.314 5.48395 110.314 8.11449C110.314 10.745 108.44 12.7736 105.706 12.7736C102.972 12.7736 101.099 10.745 101.099 8.11449ZM107.941 8.11449C107.941 6.39521 107.133 5.22622 105.706 5.22622C104.261 5.22622 103.471 6.39521 103.471 8.11449C103.471 9.83376 104.261 10.9855 105.706 10.9855C107.133 10.9859 107.941 9.83376 107.941 8.11449Z" fill="black"/>
<path d="M111.431 0.223877H113.769V12.5161H111.431V0.223877Z" fill="black"/>
<path d="M117.775 8.11449C117.775 5.48395 119.649 3.45532 122.382 3.45532C125.116 3.45532 126.99 5.48395 126.99 8.11449C126.99 10.745 125.116 12.7736 122.382 12.7736C119.648 12.7736 117.775 10.745 117.775 8.11449ZM124.617 8.11449C124.617 6.39521 123.809 5.22622 122.382 5.22622C120.937 5.22622 120.147 6.39521 120.147 8.11449C120.147 9.83376 120.937 10.9855 122.382 10.9855C123.809 10.9859 124.617 9.83376 124.617 8.11449Z" fill="black"/>
<path d="M127.385 3.69636H128.588V2.90556C128.588 0.756468 130.256 8.65608e-05 132.508 0.240604V2.04592C131.408 1.9943 130.927 2.13197 130.927 3.04323V3.69636H132.508V5.31238H130.927V12.516H128.589V5.31238H127.385V3.69636H127.385Z" fill="black"/>
<path d="M136.651 0.223877H139.144V5.03751H143.975V0.223877H146.468V12.5161H143.975V7.10056H139.144V12.5161H136.651V0.223877Z" fill="black"/>
<path d="M153.74 12.516V11.4842H153.688C153.086 12.2922 152.399 12.7565 151.161 12.7565C149.201 12.7565 148.101 11.5014 148.101 9.57607V3.69629H150.421V9.18067C150.421 10.2124 150.886 10.7795 151.883 10.7795C152.983 10.7795 153.654 9.95426 153.654 8.78527V3.69629H155.992V12.516H153.74Z" fill="black"/>
<path d="M157.505 3.69625H159.757V4.88245H159.809C160.29 4.07444 161.15 3.45532 162.371 3.45532C163.488 3.45532 164.382 4.07444 164.812 5.0025H164.846C165.448 4.03961 166.376 3.45532 167.494 3.45532C169.351 3.45532 170.399 4.65873 170.399 6.5841V12.5155H168.061V6.97991C168.061 5.9826 167.563 5.46715 166.703 5.46715C165.723 5.46715 165.122 6.22353 165.122 7.39252V12.5159H162.784V6.97991C162.784 5.9826 162.285 5.46715 161.425 5.46715C160.48 5.46715 159.844 6.22353 159.844 7.39252V12.5159H157.506V3.69625H157.505Z" fill="black"/>
<path d="M177.121 11.5359H177.086C176.639 12.2063 176.003 12.7221 174.49 12.7221C172.685 12.7221 171.413 11.7765 171.413 10.0228C171.413 8.08019 172.994 7.46107 174.954 7.18614C176.416 6.97963 177.086 6.85957 177.086 6.18883C177.086 5.55291 176.588 5.1403 175.608 5.1403C174.508 5.1403 173.975 5.5357 173.906 6.37813H171.826C171.894 4.83095 173.046 3.47266 175.625 3.47266C178.273 3.47266 179.339 4.65886 179.339 6.7219V11.209C179.339 11.8793 179.442 12.2747 179.648 12.4296V12.5156H177.396C177.258 12.344 177.172 11.9313 177.121 11.5359ZM177.138 9.40406V8.08019C176.725 8.32112 176.089 8.45838 175.505 8.59606C174.284 8.87099 173.682 9.14634 173.682 9.97156C173.682 10.7968 174.232 11.0889 175.058 11.0889C176.399 11.0889 177.138 10.2637 177.138 9.40406Z" fill="black"/>
<path d="M183.103 4.89966H183.155C183.757 3.95398 184.565 3.45532 185.768 3.45532C187.591 3.45532 188.811 4.83082 188.811 6.7562V12.5155H186.473V7.10038C186.473 6.1547 185.923 5.48436 184.943 5.48436C183.912 5.48436 183.155 6.30958 183.155 7.51299V12.5159H180.817V3.69625H183.103V4.89966Z" fill="black"/>
<path d="M190.255 0.223877H192.593V2.32134H190.255V0.223877ZM190.255 3.69643H192.593V12.5161H190.255V3.69643Z" fill="black"/>
<path d="M193.59 3.69639H194.811V0.945801H197.097V3.69639H198.61V5.24357H197.097V9.91995C197.097 10.5731 197.458 10.7968 197.974 10.7968C198.266 10.7968 198.662 10.7796 198.662 10.7796V12.4989C198.662 12.4989 198.129 12.5333 197.2 12.5333C196.065 12.5333 194.81 12.0862 194.81 10.4186V5.24357H193.59V3.69639H193.59Z" fill="black"/>
<path d="M199.813 0.223877H202.151V2.32134H199.813V0.223877ZM199.813 3.69643H202.151V12.5161H199.813V3.69643Z" fill="black"/>
<path d="M203.235 8.09728C203.235 5.48395 205.006 3.45532 207.585 3.45532C210.421 3.45532 211.934 5.62162 211.934 8.76761H205.538C205.71 10.1259 206.467 10.9683 207.791 10.9683C208.702 10.9683 209.235 10.5557 209.493 9.88539H211.796C211.47 11.4498 210.077 12.7736 207.808 12.7736C204.885 12.7736 203.235 10.7278 203.235 8.09728ZM205.573 7.152H209.493C209.424 6.03464 208.685 5.26105 207.619 5.26105C206.381 5.26064 205.779 6.00022 205.573 7.152Z" fill="black"/>
<path d="M212.467 9.66216H214.633C214.788 10.6767 215.51 11.1237 216.558 11.1237C217.59 11.1237 218.174 10.7283 218.174 10.1092C218.174 9.26676 217.057 9.18071 215.854 8.94019C214.272 8.63084 212.725 8.20102 212.725 6.27524C212.725 4.36707 214.306 3.45581 216.318 3.45581C218.639 3.45581 219.928 4.60759 220.1 6.37849H217.985C217.882 5.43281 217.281 5.08904 216.283 5.08904C215.372 5.08904 214.771 5.43281 214.771 6.06914C214.771 6.82552 215.94 6.89436 217.195 7.15208C218.673 7.46144 220.307 7.87405 220.307 9.93709C220.307 11.708 218.794 12.7737 216.593 12.7737C214.031 12.7737 212.604 11.5359 212.467 9.66216Z" fill="black"/>
<path d="M221.234 14.5275C221.905 14.1837 222.472 13.5818 222.472 12.5161H221.217V10.0232H223.727V12.3784C223.727 14.1321 222.558 15.129 221.234 15.3699V14.5275Z" fill="black"/>
<path d="M231.566 0.223877H234.145L238.478 12.5161H235.882L235.056 9.90277H230.621L229.813 12.5161H227.286L231.566 0.223877ZM231.205 7.99461H234.455L233.354 4.45322C233.148 3.8001 232.856 2.56227 232.856 2.56227H232.821C232.821 2.56227 232.512 3.8001 232.305 4.45322L231.205 7.99461Z" fill="black"/>
<path d="M241.572 5.10627H241.624C242.157 4.10896 242.758 3.59351 243.79 3.59351C244.048 3.59351 244.203 3.61071 244.34 3.66234V5.70818H244.289C242.759 5.5533 241.658 6.36131 241.658 8.21825V12.5164H239.32V3.69635H241.573V5.10627H241.572Z" fill="black"/>
<path d="M244.924 3.69639H246.145V0.945801H248.431V3.69639H249.944V5.24357H248.431V9.91995C248.431 10.5731 248.792 10.7968 249.308 10.7968C249.6 10.7968 249.996 10.7796 249.996 10.7796V12.4989C249.996 12.4989 249.463 12.5333 248.534 12.5333C247.399 12.5333 246.144 12.0862 246.144 10.4186V5.24357H244.924V3.69639H244.924Z" fill="black"/>
<path d="M250.683 9.66216H252.85C253.004 10.6767 253.726 11.1237 254.775 11.1237C255.806 11.1237 256.391 10.7283 256.391 10.1092C256.391 9.26676 255.274 9.18071 254.07 8.94019C252.489 8.63084 250.941 8.20102 250.941 6.27524C250.941 4.36707 252.523 3.45581 254.534 3.45581C256.855 3.45581 258.145 4.60759 258.317 6.37849H256.202C256.099 5.43281 255.497 5.08904 254.5 5.08904C253.589 5.08904 252.987 5.43281 252.987 6.06914C252.987 6.82552 254.156 6.89436 255.411 7.15208C256.89 7.46144 258.523 7.87405 258.523 9.93709C258.523 11.708 257.01 12.7737 254.81 12.7737C252.248 12.7737 250.82 11.5359 250.683 9.66216Z" fill="black"/>
<path d="M259.451 14.5275C260.121 14.1837 260.689 13.5818 260.689 12.5161H259.434V10.0232H261.944V12.3784C261.944 14.1321 260.775 15.129 259.451 15.3699V14.5275Z" fill="black"/>
</svg>
