<svg width="24" height="24" viewBox="0 0 24 24" fill="none" xmlns="http://www.w3.org/2000/svg" aria-hidden="true">
<g clip-path="url(#clip0_469_3947)">
<path fill-rule="evenodd" clip-rule="evenodd" d="M6.47244 0H17.5276C21.0789 0 24 2.92816 24 6.48803V17.512C24 21.0718 21.0789 24 17.5276 24H6.47244C2.92112 24 0 21.0718 0 17.512V6.48803C0 2.92816 2.92112 0 6.47244 0ZM18.4436 4.19158C19.1883 4.19158 19.8185 4.82329 19.8185 5.56978C19.8185 6.31627 19.1883 6.94799 18.4436 6.94799C17.6421 6.94799 17.0687 6.31627 17.0687 5.56978C17.0687 4.82329 17.6412 4.19158 18.4436 4.19158ZM11.9712 5.45416H12.0288C15.5801 5.45416 18.5589 8.44013 18.5589 12C18.5589 15.6168 15.5801 18.5458 12.0288 18.5458H11.9712C8.41985 18.5458 5.49873 15.6177 5.49873 12C5.49873 8.44013 8.41985 5.45416 11.9712 5.45416ZM11.9712 7.69364H12.0288C14.3774 7.69364 16.3248 9.64574 16.3248 12C16.3248 14.4112 14.3774 16.3633 12.0288 16.3633H11.9712C9.62257 16.3633 7.67515 14.4112 7.67515 12C7.67515 9.64574 9.62257 7.69364 11.9712 7.69364ZM6.53011 2.06689H17.4699C19.933 2.06689 21.9372 4.0768 21.9372 6.545V17.4542C21.9372 19.9232 19.9322 21.9323 17.4699 21.9323H6.53011C4.067 21.9323 2.06275 19.9224 2.06275 17.4542V6.54584C2.06275 4.0768 4.06784 2.06772 6.53011 2.06772V2.06689Z" fill="white"/>
</g>
<defs>
<clipPath id="clip0_469_3947">
<rect width="24" height="24" fill="white"/>
</clipPath>
</defs>
</svg>
