<svg width="24" height="24" viewBox="0 0 24 24" fill="none" xmlns="http://www.w3.org/2000/svg" aria-hidden="true">
<g clip-path="url(#clip0_469_3950)">
<path fill-rule="evenodd" clip-rule="evenodd" d="M0.468183 8.07803H5.20994V24H0.468183V8.07803ZM2.81003 0C4.39062 0 5.67812 1.2875 5.67812 2.86809C5.67812 4.44868 4.39062 5.73618 2.81003 5.73618C1.22945 5.73618 0 4.44868 0 2.86809C0 1.2875 1.22945 0 2.81003 0ZM8.01904 8.07803H12.7018V10.3028C13.6972 8.8393 15.3358 7.90293 17.2095 7.90293H18.497C21.4821 7.90293 23.882 10.3618 23.882 13.288V24H19.1993V22.5365V15.3948C19.1403 13.5801 17.9117 12.1756 16.0971 12.1756C14.2824 12.1756 12.7608 13.5801 12.7018 15.3948V24H8.01904V8.07803Z" fill="white"/>
</g>
<defs>
<clipPath id="clip0_469_3950">
<rect width="24" height="24" fill="white"/>
</clipPath>
</defs>
</svg>
