<svg width="71" height="72" viewBox="0 0 71 72" fill="none" xmlns="http://www.w3.org/2000/svg" aria-hidden="true">
<path fill-rule="evenodd" clip-rule="evenodd" d="M54.3842 36C54.3842 46.8245 45.8834 55.2 35.8893 55.2C25.8953 55.2 17.3945 46.8245 17.3945 36C17.3945 25.1756 25.8953 16.8 35.8893 16.8C45.8834 16.8 54.3842 25.1756 54.3842 36ZM59.2967 36C59.2967 49.2548 48.8169 60 35.8893 60C22.9618 60 12.4819 49.2548 12.4819 36C12.4819 22.7452 22.9618 12 35.8893 12C48.8169 12 59.2967 22.7452 59.2967 36ZM32.9689 42.0824L42.9118 36.1965L32.9689 30.3106V42.0824Z" fill="black"/>
</svg>
