<svg width="50" height="37" viewBox="0 0 50 37" fill="none" xmlns="http://www.w3.org/2000/svg" aria-hidden="true">
<path d="M18.6275 2.93207L15.5462 0C4.90196 6.56226 0 13.8226 0 23.7358C0 31.5547 4.76191 37 11.4846 37C17.507 37 22.2689 32.3925 22.2689 26.6679C22.2689 21.6415 18.4874 17.1736 14.0056 17.1736C13.4454 17.1736 12.1849 17.4528 10.6443 18.0113C10.6443 11.3094 12.465 7.81887 18.6275 2.93207ZM46.2185 2.93207L43.1373 0C32.3529 6.56226 27.451 13.683 27.451 23.7358C27.451 31.5547 32.3529 37 39.0756 37C45.2381 37 50 32.3925 50 26.6679C50 21.6415 46.0784 17.1736 41.5966 17.1736C40.7563 17.1736 39.6359 17.4528 38.2353 18.0113C38.2353 11.3094 40.056 7.81887 46.2185 2.93207Z" fill="#9933FF"/>
</svg>
