<svg width="24" height="24" viewBox="0 0 24 24" fill="none" xmlns="http://www.w3.org/2000/svg" aria-hidden="true">
<g clip-path="url(#clip0_469_3946)">
<path d="M22.3691 21.5518L14.5104 10.1349L13.622 8.84371L8.00042 0.676807L7.53467 0H0.627014L2.31173 2.44819L9.78622 13.3083L10.6747 14.5981L16.6803 23.324L17.1462 24.0002H24.0539L22.3691 21.552V21.5518ZM17.9671 22.4375L11.7278 13.3723L10.8393 12.0818L3.5992 1.5625H6.71354L12.5687 10.0696L13.4571 11.36L21.0815 22.4373H17.9671V22.4375Z" fill="white"/>
<path d="M10.8393 12.0815L11.7278 13.372L10.6745 14.5979L2.59288 23.9999H0.599976L9.78603 13.308L10.8393 12.0815Z" fill="white"/>
<path d="M23.2221 0L14.5104 10.1349L13.4571 11.36L12.5687 10.0696L13.622 8.84371L19.5231 1.97514L21.2291 0H23.2221Z" fill="white"/>
</g>
<defs>
<clipPath id="clip0_469_3946">
<rect width="23.4" height="24" fill="white" transform="translate(0.599976)"/>
</clipPath>
</defs>
</svg>
