<svg width="24" height="24" viewBox="0 0 24 24" fill="none" xmlns="http://www.w3.org/2000/svg" aria-hidden="true">
<path fill-rule="evenodd" clip-rule="evenodd" d="M11.9996 3.6001C9.89847 3.6001 7.14355 3.69375 4.80919 3.88019C2.05427 4.11345 0.607002 4.58084 0.233262 7.33576C0.0936518 8.59659 0 10.3239 0 12.0981C0 13.8723 0.0927846 15.6465 0.233262 16.8605C0.607002 19.6622 2.05427 20.0828 4.80919 20.3161C7.14355 20.5493 9.89847 20.5962 11.9996 20.5962C14.1007 20.5962 16.8088 20.5493 19.1899 20.3161C21.9449 20.0819 23.3453 19.6622 23.719 16.8605C23.9055 15.6465 23.9991 13.8723 23.9991 12.0981C23.9991 10.3239 23.9055 8.59659 23.719 7.33576C23.3453 4.58084 21.9449 4.11345 19.1899 3.88019C16.8088 3.69375 14.1007 3.6001 11.9996 3.6001ZM15.8289 12.0981L9.57158 8.50293V15.7401L15.8289 12.0981Z" fill="white"/>
</svg>
